<svg xmlns="http://www.w3.org/2000/svg" version="1.1" xmlns:xlink="http://www.w3.org/1999/xlink" xmlns:svgjs="http://svgjs.dev/svgjs" width="1500" height="727" viewBox="0 0 1500 727"><g transform="matrix(1,0,0,1,-0.9090909090909918,-0.5088517900122156)"><svg viewBox="0 0 396 192" data-background-color="#8abe53" preserveAspectRatio="xMidYMid meet" height="727" width="1500" xmlns="http://www.w3.org/2000/svg" xmlns:xlink="http://www.w3.org/1999/xlink"><g id="tight-bounds" transform="matrix(1,0,0,1,0.2400000000000091,0.13438726778863952)"><svg viewBox="0 0 395.52 191.73122546442272" height="191.73122546442272" width="395.52"><g><svg viewBox="0 0 397.49759999999986 192.68988159174478" height="191.73122546442272" width="395.52"><g><rect width="397.49759999999986" height="5.901836575225213" x="0" y="105.89388817699614" fill="#ffffff" opacity="1" stroke-width="0" stroke="transparent" fill-opacity="1" class="rect-qz-0" data-fill-palette-color="secondary" rx="1%" id="qz-0" data-palette-color="#ffffff"></rect></g><g transform="matrix(1,0,0,1,0.9887999999999693,127.2455587187795)"><svg viewBox="0 0 395.5199999999999 65.44432287296526" height="65.44432287296526" width="395.5199999999999"><g id="textblocktransform"><svg viewBox="0 0 395.5199999999999 65.44432287296526" height="65.44432287296526" width="395.5199999999999" id="textblock"><g><svg viewBox="0 0 395.5199999999999 65.44432287296526" height="65.44432287296526" width="395.5199999999999"><g transform="matrix(1,0,0,1,0,0)"><svg width="395.5199999999999" viewBox="2.25 -38.1 297.92 49.3" height="65.44432287296526" data-palette-color="#ffffff"><path d="M12.7 0.55L12.7 0.55Q9.03 0.55 6.28-0.68 3.53-1.9 2.25-3.25L2.25-3.25 4.8-8.5Q5.33-7.83 6.46-6.98 7.6-6.13 9.11-5.49 10.63-4.85 12.25-4.85L12.25-4.85Q14.13-4.85 15.51-5.9 16.9-6.95 16.9-9L16.9-9Q16.9-11.03 15.46-12.21 14.03-13.4 11.55-14.9L11.55-14.9Q9.53-16.13 7.58-17.51 5.63-18.9 4.34-20.91 3.05-22.93 3.05-26L3.05-26Q3.05-30.13 5.69-32.79 8.33-35.45 13.35-35.45L13.35-35.45Q15.9-35.45 17.69-34.85 19.48-34.25 20.59-33.48 21.7-32.7 22.25-32.2L22.25-32.2 19.45-27.1Q19.1-27.6 18.28-28.33 17.45-29.05 16.25-29.6 15.05-30.15 13.6-30.15L13.6-30.15Q11.58-30.15 10.56-28.99 9.55-27.83 9.55-26.25L9.55-26.25Q9.55-24.23 11.04-22.95 12.53-21.68 14.65-20.4L14.65-20.4Q17-19 19-17.59 21-16.18 22.23-14.21 23.45-12.25 23.45-9.2L23.45-9.2Q23.45-4.63 20.58-2.04 17.7 0.55 12.7 0.55ZM35.25 0L29.1 0 29.1-38.1 35-38.1 35-25.5 34.87-21.75Q35.87-23.2 37.67-24.35 39.47-25.5 42.45-25.5L42.45-25.5Q46.2-25.5 48.05-23.1 49.9-20.7 49.9-16.45L49.9-16.45 49.9 0 43.5 0 43.5-15.8Q43.5-17.88 42.51-19.16 41.52-20.45 39.75-20.45L39.75-20.45Q38-20.45 36.62-19.16 35.25-17.88 35.25-15.8L35.25-15.8 35.25 0ZM67.4 0.5L67.4 0.5Q61.9 0.5 58.9-2.95 55.9-6.4 55.9-12.5L55.9-12.5Q55.9-18.65 59-22.08 62.09-25.5 67.59-25.5L67.59-25.5Q73.12-25.5 76.01-21.96 78.9-18.43 78.9-12.5L78.9-12.5Q78.9-6.58 75.91-3.04 72.92 0.5 67.4 0.5ZM67.5-4.5L67.5-4.5Q72.25-4.5 72.25-12.5L72.25-12.5Q72.25-20.55 67.5-20.55L67.5-20.55Q65.15-20.55 63.84-18.69 62.55-16.82 62.55-12.5L62.55-12.5Q62.55-8.2 63.84-6.35 65.15-4.5 67.5-4.5ZM90.84 10.9L84.79 10.9 84.79-24.9 90.74-24.9 90.74-24.1 90.24-20.6Q90.54-22.03 91.61-23.15 92.67-24.28 94.21-24.91 95.74-25.55 97.44-25.55L97.44-25.55Q102.39-25.55 104.67-22.09 106.94-18.63 106.94-12.8L106.94-12.8Q106.94-6.28 104.18-2.79 101.42 0.7 96.94 0.7L96.94 0.7Q94.17 0.7 92.51-1.03 90.84-2.75 90.24-4.95L90.24-4.95 90.84-0.25 90.84 10.9ZM95.49-4.25L95.49-4.25Q96.69-4.25 97.82-5.06 98.94-5.88 99.67-7.7 100.39-9.53 100.39-12.55L100.39-12.55Q100.39-16.75 98.96-18.6 97.52-20.45 95.59-20.45L95.59-20.45Q93.27-20.45 92.06-18.06 90.84-15.68 90.84-12.15L90.84-12.15Q90.84-8.63 92.08-6.44 93.32-4.25 95.49-4.25ZM118.94 10.9L112.89 10.9 112.89-24.9 118.84-24.9 118.84-24.1 118.34-20.6Q118.64-22.03 119.7-23.15 120.77-24.28 122.3-24.91 123.84-25.55 125.54-25.55L125.54-25.55Q130.49-25.55 132.77-22.09 135.04-18.63 135.04-12.8L135.04-12.8Q135.04-6.28 132.28-2.79 129.52 0.7 125.04 0.7L125.04 0.7Q122.27 0.7 120.6-1.03 118.94-2.75 118.34-4.95L118.34-4.95 118.94-0.25 118.94 10.9ZM123.59-4.25L123.59-4.25Q124.79-4.25 125.92-5.06 127.04-5.88 127.77-7.7 128.49-9.53 128.49-12.55L128.49-12.55Q128.49-16.75 127.05-18.6 125.62-20.45 123.69-20.45L123.69-20.45Q121.37-20.45 120.15-18.06 118.94-15.68 118.94-12.15L118.94-12.15Q118.94-8.63 120.18-6.44 121.42-4.25 123.59-4.25ZM147.69-28.95L140.69-28.95 140.69-35.6 147.69-35.6 147.69-28.95ZM147.44 0L140.94 0 140.94-24.9 147.44-24.9 147.44 0ZM161.28 0L154.88 0 154.88-24.9 160.69-24.9 160.81-21.63Q161.78-23.13 163.53-24.31 165.28-25.5 168.13-25.5L168.13-25.5Q171.94-25.5 173.78-23.1 175.63-20.7 175.63-16.45L175.63-16.45 175.63 0 169.24 0 169.24-15.9Q169.24-17.98 168.36-19.26 167.49-20.55 165.69-20.55L165.69-20.55Q163.94-20.55 162.61-19.26 161.28-17.98 161.28-15.9L161.28-15.9 161.28 0ZM183.48 9L186.28 4.3Q187.18 4.85 188.47 5.3 189.76 5.75 191.48 5.75L191.48 5.75Q194.68 5.75 196.28 4.09 197.88 2.43 197.88-1.2L197.88-1.2 197.88-5.1Q197.53-3.83 196.78-2.58 196.03-1.33 194.72-0.51 193.41 0.3 191.38 0.3L191.38 0.3Q188.56 0.3 186.27-0.99 183.98-2.27 182.63-5.08 181.28-7.88 181.28-12.4L181.28-12.4Q181.28-17 182.62-19.89 183.96-22.78 186.22-24.14 188.48-25.5 191.23-25.5L191.23-25.5Q194.31-25.5 195.93-23.95 197.56-22.4 197.88-20.6L197.88-20.6 198.58-24.9 203.48-24.9 203.48-1.2Q203.48 4.53 200.59 7.86 197.71 11.2 192.08 11.2L192.08 11.2Q189.06 11.2 186.83 10.44 184.61 9.68 183.48 9L183.48 9ZM192.63-4.6L192.63-4.6Q194.81-4.6 196.04-6.66 197.28-8.72 197.28-12.5L197.28-12.5Q197.28-16.07 196.21-18.26 195.13-20.45 192.83-20.45L192.83-20.45Q191.56-20.45 190.39-19.69 189.23-18.93 188.48-17.18 187.73-15.43 187.73-12.45L187.73-12.45Q187.73-8.4 189.12-6.5 190.51-4.6 192.63-4.6ZM232.53 0.6L232.53 0.6Q229.8 0.6 227.28-0.51 224.75-1.63 222.74-3.89 220.73-6.15 219.55-9.65 218.38-13.15 218.38-17.9L218.38-17.9Q218.38-23.6 220.37-27.51 222.35-31.43 225.69-33.44 229.03-35.45 233.08-35.45L233.08-35.45Q235.83-35.45 237.56-34.93 239.3-34.4 240.34-33.68 241.38-32.95 242.03-32.35L242.03-32.35 239.23-27.1Q238.15-28.28 237-28.99 235.85-29.7 233.33-29.7L233.33-29.7Q230.78-29.7 228.99-28.23 227.2-26.75 226.27-24.16 225.33-21.58 225.33-18.25L225.33-18.25Q225.33-11.73 227.52-8.41 229.7-5.1 232.78-5.1L232.78-5.1Q235.15-5.1 236.83-5.78 238.5-6.45 239.33-7.3L239.33-7.3 242.08-2.35Q241.38-1.78 240.22-1.09 239.05-0.4 237.19 0.1 235.33 0.6 232.53 0.6ZM253.38-28.95L246.38-28.95 246.38-35.6 253.38-35.6 253.38-28.95ZM253.13 0L246.63 0 246.63-24.9 253.13-24.9 253.13 0ZM268.77 0.75L268.77 0.75Q264.55 0.75 263.06-1.45 261.57-3.65 261.57-8.1L261.57-8.1 261.57-19.65 258.32-19.65 258.32-24.9 261.82-24.9 262.17-30.15 267.62-32.5 267.62-24.9 273.77-24.9 273.77-19.65 267.62-19.65 267.62-8.25Q267.62-6.08 268.24-5.24 268.85-4.4 269.92-4.4L269.92-4.4Q271.02-4.4 272.25-4.98 273.47-5.55 274.17-6.15L274.17-6.15 275.37-1.1Q274.6-0.55 273.36-0.14 272.12 0.28 270.86 0.51 269.6 0.75 268.77 0.75ZM287.47 9.45L281.32 9.45 285.37-1.7 276.02-24.9 282.97-24.9 286.67-13.8 288.27-8.05 289.87-13.8 293.62-24.9 300.17-24.9 287.47 9.45Z" opacity="1" transform="matrix(1,0,0,1,0,0)" fill="#ffffff" class="wordmark-text-0" data-fill-palette-color="primary" id="text-0"></path></svg></g></svg></g></svg></g></svg></g><g transform="matrix(1,0,0,1,149.2952751535492,0)"><svg viewBox="0 0 98.9070496929015 90.444054210438" height="90.444054210438" width="98.9070496929015"><g><svg xmlns="http://www.w3.org/2000/svg" xmlns:xlink="http://www.w3.org/1999/xlink" version="1.1" x="8" y="0" viewBox="4 0 88 96" enable-background="new 0 0 96 96" xml:space="preserve" height="90.444054210438" width="82.9070496929015" class="icon-icon-0" data-fill-palette-color="accent" id="icon-0"><path d="M32 60h32v36H32V60z" fill="#ffffff" data-fill-palette-color="accent"></path><path d="M79.779 37.796c-1.836 2.272-4.639 3.96-7.779 3.96-3.264 0-6.172-1.452-8-3.888-1.828 2.428-4.736 4.072-8 4.072s-6.172-1.544-8-3.976c-1.828 2.432-4.732 4.02-8 4.02s-6.172-1.572-8-4c-1.828 2.428-4.732 4.008-8 4.008s-6.172-1.572-8-4C14.172 40.42 11.268 42 8 42v52c0 1.1 0.896 2 2 2h18V58c0-1.1 0.896-2 2-2h36c1.1 0 2 0.9 2 2v38h18c1.1 0 2-0.9 2-2 0 0 0-49.492 0-52.312C84.916 41.688 81.368 40.132 79.779 37.796z" fill="#ffffff" data-fill-palette-color="accent"></path><path d="M85.884 1.328C85.6 0.532 84.852 0 84 0H11.876c-0.848 0-1.604 0.536-1.888 1.336L4 18.316V32c0 3.252 1.832 6 4 6 3.308 0 6-2.692 6-6 0-1.1 0.896-2 2-2s2 0.9 2 2c0 3.308 2.692 6 6 6s6-2.692 6-6c0-1.1 0.896-2 2-2s2 0.9 2 2c0 3.308 2.692 6 6 6s6-2.692 6-6c0-1.1 0.896-2 2-2 1.104 0 2 0.9 2 2 0 3.308 2.691 6 6 6s6-2.692 6-6c0-1.1 0.9-2 2-2s2 0.9 2 2c0 3.308 2.691 6 6 6s6-2.692 6-6c0-1.1 0.9-2 2-2s2 0.9 2 2c0 2.764 1.309 6 5 6s5-3.236 5-6V18.456L85.884 1.328z" fill="#ffffff" data-fill-palette-color="accent"></path></svg></g></svg></g><g><rect width="72.76215515354924" height="5.901836575225213" y="83.54221763521278" x="248.2023248464507" fill="#ffffff" data-fill-palette-color="secondary"></rect><rect width="72.76215515354924" height="5.901836575225213" y="83.54221763521278" x="76.53311999999994" fill="#ffffff" data-fill-palette-color="secondary"></rect></g></svg></g><defs></defs></svg><rect width="395.52" height="191.73122546442272" fill="none" stroke="none" visibility="hidden"></rect></g></svg></g></svg>